<svg xmlns="http://www.w3.org/2000/svg" viewBox="0 0 120 120" width="120" height="120">
  <rect width="120" height="120" rx="24" fill="#6750A4"/>
  <path d="M48 40c-4.4 0-8 3.6-8 8v24c0 4.4 3.6 8 8 8h24c4.4 0 8-3.6 8-8V48c0-4.4-3.6-8-8-8H48zm12 10c2.2 0 4 1.8 4 4v12c0 2.2-1.8 4-4 4s-4-1.8-4-4V54c0-2.2 1.8-4 4-4z" fill="#FFFFFF"/>
  <path d="M60 46c-3.3 0-6 2.7-6 6v16c0 3.3 2.7 6 6 6s6-2.7 6-6V52c0-3.3-2.7-6-6-6zm0 4c1.1 0 2 .9 2 2v16c0 1.1-.9 2-2 2s-2-.9-2-2V52c0-1.1.9-2 2-2z" fill="#EADDFF"/>
  <path d="M44 60c0-8.8 7.2-16 16-16s16 7.2 16 16-7.2 16-16 16-16-7.2-16-16zm4 0c0 6.6 5.4 12 12 12s12-5.4 12-12-5.4-12-12-12-12 5.4-12 12z" fill="#D0BCFF" opacity="0.5"/>
  <circle cx="60" cy="60" r="20" fill="none" stroke="#FFFFFF" stroke-width="4" stroke-dasharray="8 4"/>
  <path d="M50 50l20 20M70 50L50 70" stroke="#FFFFFF" stroke-width="4" stroke-linecap="round"/>
</svg>
